{
	"asset":{
		"generator":"Khronos glTF Blender I/O v4.2.83",
		"version":"2.0"
	},
	"scene":0,
	"scenes":[
		{
			"name":"Scene",
			"nodes":[
				4
			]
		}
	],
	"nodes":[
		{
			"mesh":0,
			"name":"Door_R_Door_0-col",
			"rotation":[
				8.94110191429747e-16,
				-1,
				2.1855695919725804e-08,
				4.371138828673793e-08
			],
			"scale":[
				0.04399307072162628,
				0.06071997433900833,
				0.06071997433900833
			],
			"translation":[
				-0.035827815532684326,
				0.37374305725097656,
				-0.016756296157836914
			]
		},
		{
			"children":[
				0
			],
			"name":"Bone",
			"scale":[
				0.9999999403953552,
				0.9999999403953552,
				0.9999999403953552
			],
			"translation":[
				2.9802322387695312e-08,
				-3.725290298461914e-09,
				0
			]
		},
		{
			"mesh":1,
			"name":"Door_L_Door_0-col",
			"rotation":[
				0,
				-1,
				0,
				7.549790126404332e-08
			],
			"scale":[
				0.04399307817220688,
				0.06071998551487923,
				0.06071998551487923
			],
			"translation":[
				0.0075064003467559814,
				0.38436606526374817,
				-0.01675724983215332
			]
		},
		{
			"children":[
				2
			],
			"name":"Bone.001",
			"scale":[
				0.9999999403953552,
				0.9999999403953552,
				0.9999999403953552
			],
			"translation":[
				0.7091063857078552,
				-3.725290298461914e-09,
				0
			]
		},
		{
			"children":[
				1,
				3
			],
			"name":"Armature",
			"scale":[
				2.9175665378570557,
				2.9175665378570557,
				2.9175665378570557
			],
			"translation":[
				-0.9239344596862793,
				0.09622855484485626,
				-11.402634620666504
			]
		}
	],
	"animations":[
		{
			"channels":[
				{
					"sampler":0,
					"target":{
						"node":1,
						"path":"translation"
					}
				},
				{
					"sampler":1,
					"target":{
						"node":1,
						"path":"rotation"
					}
				},
				{
					"sampler":2,
					"target":{
						"node":1,
						"path":"scale"
					}
				},
				{
					"sampler":3,
					"target":{
						"node":3,
						"path":"translation"
					}
				},
				{
					"sampler":4,
					"target":{
						"node":3,
						"path":"rotation"
					}
				},
				{
					"sampler":5,
					"target":{
						"node":3,
						"path":"scale"
					}
				}
			],
			"name":"Open",
			"samplers":[
				{
					"input":12,
					"interpolation":"STEP",
					"output":13
				},
				{
					"input":14,
					"interpolation":"LINEAR",
					"output":15
				},
				{
					"input":12,
					"interpolation":"STEP",
					"output":16
				},
				{
					"input":12,
					"interpolation":"STEP",
					"output":17
				},
				{
					"input":14,
					"interpolation":"LINEAR",
					"output":18
				},
				{
					"input":12,
					"interpolation":"STEP",
					"output":19
				}
			]
		}
	],
	"materials":[
		{
			"doubleSided":true,
			"name":"Door",
			"normalTexture":{
				"index":0
			},
			"pbrMetallicRoughness":{
				"baseColorTexture":{
					"index":1
				},
				"metallicRoughnessTexture":{
					"index":2
				}
			}
		}
	],
	"meshes":[
		{
			"name":"Door_R_Door_0",
			"primitives":[
				{
					"attributes":{
						"POSITION":0,
						"NORMAL":1,
						"TEXCOORD_0":2,
						"TEXCOORD_1":3,
						"TEXCOORD_2":4
					},
					"indices":5,
					"material":0
				}
			]
		},
		{
			"name":"Door_L_Door_0",
			"primitives":[
				{
					"attributes":{
						"POSITION":6,
						"NORMAL":7,
						"TEXCOORD_0":8,
						"TEXCOORD_1":9,
						"TEXCOORD_2":10
					},
					"indices":11,
					"material":0
				}
			]
		}
	],
	"textures":[
		{
			"sampler":0,
			"source":0
		},
		{
			"sampler":0,
			"source":1
		},
		{
			"sampler":0,
			"source":2
		}
	],
	"images":[
		{
			"mimeType":"image/png",
			"name":"Image_11",
			"uri":"Image_11.png"
		},
		{
			"mimeType":"image/png",
			"name":"Image_9",
			"uri":"Image_9.png"
		},
		{
			"mimeType":"image/png",
			"name":"Image_10",
			"uri":"Image_10.png"
		}
	],
	"skins":[
		{
			"inverseBindMatrices":20,
			"joints":[
				1,
				3
			],
			"name":"Armature"
		}
	],
	"accessors":[
		{
			"bufferView":0,
			"componentType":5126,
			"count":626,
			"max":[
				-0.026493549346923828,
				12.281929969787598,
				0.7162348628044128
			],
			"min":[
				-8.616388320922852,
				-6.918456554412842,
				-1.3888252973556519
			],
			"type":"VEC3"
		},
		{
			"bufferView":1,
			"componentType":5126,
			"count":626,
			"type":"VEC3"
		},
		{
			"bufferView":2,
			"componentType":5126,
			"count":626,
			"type":"VEC2"
		},
		{
			"bufferView":3,
			"componentType":5126,
			"count":626,
			"type":"VEC2"
		},
		{
			"bufferView":4,
			"componentType":5126,
			"count":626,
			"type":"VEC2"
		},
		{
			"bufferView":5,
			"componentType":5123,
			"count":1038,
			"type":"SCALAR"
		},
		{
			"bufferView":6,
			"componentType":5126,
			"count":602,
			"max":[
				8.445573806762695,
				12.106971740722656,
				0.7162342667579651
			],
			"min":[
				-0.1443190574645996,
				-7.093408107757568,
				-1.388825535774231
			],
			"type":"VEC3"
		},
		{
			"bufferView":7,
			"componentType":5126,
			"count":602,
			"type":"VEC3"
		},
		{
			"bufferView":8,
			"componentType":5126,
			"count":602,
			"type":"VEC2"
		},
		{
			"bufferView":9,
			"componentType":5126,
			"count":602,
			"type":"VEC2"
		},
		{
			"bufferView":10,
			"componentType":5126,
			"count":602,
			"type":"VEC2"
		},
		{
			"bufferView":11,
			"componentType":5123,
			"count":1038,
			"type":"SCALAR"
		},
		{
			"bufferView":12,
			"componentType":5126,
			"count":2,
			"max":[
				1.25
			],
			"min":[
				0
			],
			"type":"SCALAR"
		},
		{
			"bufferView":13,
			"componentType":5126,
			"count":2,
			"type":"VEC3"
		},
		{
			"bufferView":14,
			"componentType":5126,
			"count":31,
			"max":[
				1.25
			],
			"min":[
				0
			],
			"type":"SCALAR"
		},
		{
			"bufferView":15,
			"componentType":5126,
			"count":31,
			"type":"VEC4"
		},
		{
			"bufferView":16,
			"componentType":5126,
			"count":2,
			"type":"VEC3"
		},
		{
			"bufferView":17,
			"componentType":5126,
			"count":2,
			"type":"VEC3"
		},
		{
			"bufferView":18,
			"componentType":5126,
			"count":31,
			"type":"VEC4"
		},
		{
			"bufferView":19,
			"componentType":5126,
			"count":2,
			"type":"VEC3"
		},
		{
			"bufferView":20,
			"componentType":5126,
			"count":2,
			"type":"MAT4"
		}
	],
	"bufferViews":[
		{
			"buffer":0,
			"byteLength":7512,
			"byteOffset":0,
			"target":34962
		},
		{
			"buffer":0,
			"byteLength":7512,
			"byteOffset":7512,
			"target":34962
		},
		{
			"buffer":0,
			"byteLength":5008,
			"byteOffset":15024,
			"target":34962
		},
		{
			"buffer":0,
			"byteLength":5008,
			"byteOffset":20032,
			"target":34962
		},
		{
			"buffer":0,
			"byteLength":5008,
			"byteOffset":25040,
			"target":34962
		},
		{
			"buffer":0,
			"byteLength":2076,
			"byteOffset":30048,
			"target":34963
		},
		{
			"buffer":0,
			"byteLength":7224,
			"byteOffset":32124,
			"target":34962
		},
		{
			"buffer":0,
			"byteLength":7224,
			"byteOffset":39348,
			"target":34962
		},
		{
			"buffer":0,
			"byteLength":4816,
			"byteOffset":46572,
			"target":34962
		},
		{
			"buffer":0,
			"byteLength":4816,
			"byteOffset":51388,
			"target":34962
		},
		{
			"buffer":0,
			"byteLength":4816,
			"byteOffset":56204,
			"target":34962
		},
		{
			"buffer":0,
			"byteLength":2076,
			"byteOffset":61020,
			"target":34963
		},
		{
			"buffer":0,
			"byteLength":8,
			"byteOffset":63096
		},
		{
			"buffer":0,
			"byteLength":24,
			"byteOffset":63104
		},
		{
			"buffer":0,
			"byteLength":124,
			"byteOffset":63128
		},
		{
			"buffer":0,
			"byteLength":496,
			"byteOffset":63252
		},
		{
			"buffer":0,
			"byteLength":24,
			"byteOffset":63748
		},
		{
			"buffer":0,
			"byteLength":24,
			"byteOffset":63772
		},
		{
			"buffer":0,
			"byteLength":496,
			"byteOffset":63796
		},
		{
			"buffer":0,
			"byteLength":24,
			"byteOffset":64292
		},
		{
			"buffer":0,
			"byteLength":128,
			"byteOffset":64316
		}
	],
	"samplers":[
		{
			"magFilter":9729,
			"minFilter":9987
		}
	],
	"buffers":[
		{
			"byteLength":64444,
			"uri":"doors.bin"
		}
	]
}
